<?xml version="1.0" standalone="no"?>
<!DOCTYPE svg PUBLIC "-//W3C//DTD SVG 20010904//EN"
 "http://www.w3.org/TR/2001/REC-SVG-20010904/DTD/svg10.dtd">
<svg version="1.0" xmlns="http://www.w3.org/2000/svg"
 width="1024.000000pt" height="625.000000pt" viewBox="0 0 1024.000000 625.000000"
 preserveAspectRatio="xMidYMid meet">

<g transform="translate(0.000000,625.000000) scale(0.100000,-0.100000)"
fill="#000000" stroke="none">
<path d="M2 4783 c1 -1067 3 -1351 9 -1038 4 237 12 662 18 945 7 283 16 740
21 1015 5 275 12 510 16 523 6 20 3 22 -30 22 l-36 0 2 -1467z"/>
<path d="M5480 6242 c113 -1 617 -8 1120 -16 503 -7 919 -9 924 -5 5 4 19 3
32 -2 25 -9 773 -14 782 -4 3 3 -30 5 -73 5 -43 0 -76 2 -73 5 7 8 288 8 296
1 3 -3 -16 -6 -43 -6 -27 0 -46 -2 -44 -4 2 -3 119 -7 259 -10 140 -3 343 -8
450 -11 107 -3 405 -8 663 -11 l467 -6 0 36 0 36 -2482 -2 c-1366 -2 -2391 -4
-2278 -6z m2593 -19 c-7 -2 -21 -2 -30 0 -10 3 -4 5 12 5 17 0 24 -2 18 -5z
m84 1 c-3 -3 -12 -4 -19 -1 -8 3 -5 6 6 6 11 1 17 -2 13 -5z m396 -1 c-7 -2
-21 -2 -30 0 -10 3 -4 5 12 5 17 0 24 -2 18 -5z m150 0 c-7 -2 -21 -2 -30 0
-10 3 -4 5 12 5 17 0 24 -2 18 -5z"/>
<path d="M9440 5454 c0 -8 5 -12 10 -9 6 4 8 11 5 16 -9 14 -15 11 -15 -7z"/>
<path d="M9376 5361 c18 -11 38 -29 46 -40 25 -36 68 -65 80 -53 10 10 2 52
-10 51 -24 -4 -42 3 -42 16 0 17 -50 45 -82 45 -21 0 -20 -2 8 -19z"/>
<path d="M6217 5166 c-4 -9 3 -16 19 -20 31 -8 26 -32 -5 -28 -15 1 -21 -2
-18 -10 2 -7 16 -12 31 -11 14 1 26 -2 26 -8 0 -5 9 -9 19 -9 11 0 23 -5 26
-10 9 -14 35 7 35 28 0 13 -3 12 -14 -4 -14 -18 -15 -18 -22 0 -4 10 -2 27 4
37 16 25 15 29 -4 29 -9 0 -18 -9 -21 -20 -6 -22 -23 -27 -23 -7 0 13 -31 47
-42 47 -3 0 -8 -6 -11 -14z"/>
<path d="M8801 5144 c0 -11 3 -14 6 -6 3 7 2 16 -1 19 -3 4 -6 -2 -5 -13z"/>
<path d="M8871 5134 c0 -11 3 -14 6 -6 3 7 2 16 -1 19 -3 4 -6 -2 -5 -13z"/>
<path d="M6187 5043 c-7 -34 -2 -39 46 -47 33 -6 37 -5 37 14 0 12 -5 18 -10
15 -18 -11 -50 6 -50 26 0 29 -17 23 -23 -8z"/>
<path d="M8412 4943 c-21 -32 -21 -37 -8 -45 11 -6 16 -24 16 -58 0 -43 3 -50
20 -50 17 0 20 7 20 50 0 35 5 52 17 58 15 9 14 13 -6 46 -13 20 -26 36 -29
36 -4 -1 -17 -17 -30 -37z"/>
<path d="M6167 4954 c-4 -4 -6 -19 -6 -33 1 -18 3 -20 6 -8 4 14 12 17 44 13
36 -4 42 -1 38 22 -2 10 -73 15 -82 6z"/>
<path d="M7608 4953 c7 -3 16 -2 19 1 4 3 -2 6 -13 5 -11 0 -14 -3 -6 -6z"/>
<path d="M7688 4953 c6 -2 18 -2 25 0 6 3 1 5 -13 5 -14 0 -19 -2 -12 -5z"/>
<path d="M7818 4953 c7 -3 16 -2 19 1 4 3 -2 6 -13 5 -11 0 -14 -3 -6 -6z"/>
<path d="M6200 4895 c0 -8 9 -15 20 -15 11 0 20 7 20 15 0 8 -9 15 -20 15 -11
0 -20 -7 -20 -15z"/>
<path d="M5881 4844 c0 -11 3 -14 6 -6 3 7 2 16 -1 19 -3 4 -6 -2 -5 -13z"/>
<path d="M6090 4847 c0 -7 14 -26 30 -42 29 -27 30 -31 14 -42 -10 -7 -28 -13
-40 -13 -12 0 -25 -7 -28 -16 -8 -20 -11 -18 47 -34 26 -7 50 -17 53 -21 8
-14 24 -10 24 6 0 9 -9 15 -22 15 -27 0 -54 15 -42 23 5 2 24 8 42 12 17 3 32
9 32 11 0 3 -12 16 -27 29 -33 28 -24 43 17 28 17 -6 30 -8 30 -3 0 5 2 15 5
23 5 10 -4 14 -34 15 -21 1 -51 6 -66 12 -34 13 -35 13 -35 -3z"/>
<path d="M8080 4817 c0 -19 -22 -27 -71 -27 -28 0 -39 -4 -39 -15 0 -8 6 -15
13 -16 6 -1 19 -2 27 -3 8 -2 25 -3 38 -4 12 -1 22 -9 22 -17 0 -8 5 -15 10
-15 13 0 80 43 80 52 0 4 -12 15 -27 26 -47 32 -53 34 -53 19z"/>
<path d="M6371 4734 c0 -11 3 -14 6 -6 3 7 2 16 -1 19 -3 4 -6 -2 -5 -13z"/>
<path d="M5851 4724 c0 -11 3 -14 6 -6 3 7 2 16 -1 19 -3 4 -6 -2 -5 -13z"/>
<path d="M7713 4691 c-19 -33 -20 -40 -8 -45 10 -3 15 -20 15 -49 0 -40 13
-67 32 -67 4 0 8 25 8 55 0 48 2 55 20 55 11 0 20 5 20 10 0 16 -44 80 -55 80
-5 0 -20 -18 -32 -39z"/>
<path d="M6355 4680 c-4 -17 -5 -34 -2 -36 2 -3 7 10 11 27 8 42 0 50 -9 9z"/>
<path d="M7215 4638 c-6 -12 -25 -30 -44 -40 -18 -11 -40 -25 -48 -33 -8 -8
-22 -15 -32 -15 -22 0 -71 -23 -71 -32 0 -5 9 -8 19 -8 28 0 54 -12 43 -19 -6
-3 -11 -19 -12 -36 -4 -59 -1 -67 23 -63 20 3 22 9 22 55 -1 28 3 49 7 47 4
-3 8 -25 8 -50 0 -24 5 -44 11 -44 5 0 8 3 6 8 -3 4 -1 25 3 47 l8 40 1 -47
c1 -67 21 -60 21 7 0 34 4 55 11 55 6 0 8 7 5 16 -4 9 1 28 10 42 l17 26 19
-24 c11 -13 16 -31 13 -41 -4 -11 -2 -19 4 -19 7 0 11 -25 11 -62 0 -65 12
-73 17 -11 4 51 13 54 13 5 0 -57 18 -53 22 5 2 31 8 48 18 51 12 4 13 2 3 -9
-7 -7 -13 -32 -13 -55 0 -32 4 -44 18 -47 9 -3 -11 -5 -45 -6 l-62 -1 -3 37
c-2 20 -8 38 -14 40 -16 5 -25 -36 -13 -59 9 -17 4 -18 -86 -18 -62 0 -94 -4
-90 -10 3 -5 18 -10 32 -10 36 0 24 -9 -16 -12 -18 -1 -34 -5 -36 -9 -4 -6
416 -21 422 -15 2 2 -1 15 -7 30 -6 17 -16 26 -27 24 -15 -3 -18 5 -19 51 -1
33 -7 57 -15 62 -14 9 -12 9 40 13 46 3 -7 46 -56 46 -13 0 -26 6 -29 14 -3 8
-21 22 -40 31 -19 9 -39 27 -44 41 -12 29 -13 30 -25 2z"/>
<path d="M5831 4634 c0 -11 3 -14 6 -6 3 7 2 16 -1 19 -3 4 -6 -2 -5 -13z"/>
<path d="M8178 4643 c12 -2 32 -2 45 0 12 2 2 4 -23 4 -25 0 -35 -2 -22 -4z"/>
<path d="M6335 4598 c-4 -18 -18 -79 -32 -136 -14 -57 -23 -105 -20 -108 4 -4
25 80 64 254 3 12 3 22 0 22 -3 0 -8 -15 -12 -32z"/>
<path d="M6082 4588 c-17 -17 -15 -42 6 -61 35 -32 73 -14 71 33 0 25 0 25 -9
3 -16 -40 -35 -27 -31 20 3 20 -19 23 -37 5z m18 -28 c0 -5 -4 -10 -10 -10 -5
0 -10 5 -10 10 0 6 5 10 10 10 6 0 10 -4 10 -10z"/>
<path d="M7573 4515 c0 -44 2 -61 4 -37 2 23 2 59 0 80 -2 20 -4 1 -4 -43z"/>
<path d="M5811 4554 c0 -11 3 -14 6 -6 3 7 2 16 -1 19 -3 4 -6 -2 -5 -13z"/>
<path d="M9517 4559 c4 -3 19 -10 33 -14 20 -6 23 -5 13 6 -7 7 -22 13 -33 14
-11 1 -17 -2 -13 -6z"/>
<path d="M5801 4514 c0 -11 3 -14 6 -6 3 7 2 16 -1 19 -3 4 -6 -2 -5 -13z"/>
<path d="M9460 4500 c6 -11 15 -20 20 -20 6 0 5 9 -2 20 -7 11 -16 20 -21 20
-4 0 -3 -9 3 -20z"/>
<path d="M7851 4459 c-1 -44 4 -62 20 -83 12 -15 24 -25 27 -22 3 3 -3 15 -14
27 -12 13 -21 43 -25 78 l-6 56 -2 -56z"/>
<path d="M9390 4500 c1 -20 26 -53 39 -49 5 2 -1 18 -15 34 -14 18 -24 24 -24
15z"/>
<path d="M5771 4394 c-12 -53 -20 -98 -18 -101 3 -2 14 40 27 92 12 53 20 98
18 101 -3 2 -15 -39 -27 -92z"/>
<path d="M6041 4444 c-12 -43 -8 -54 20 -54 11 0 29 -5 40 -10 11 -7 19 -7 19
-1 0 5 3 17 7 27 4 11 3 15 -5 10 -17 -10 -62 4 -62 21 0 11 10 14 37 11 28
-2 39 1 41 13 2 12 -7 16 -42 17 -44 2 -45 1 -55 -34z"/>
<path d="M9300 4422 c0 -27 22 -38 47 -23 17 10 17 10 -1 11 -10 0 -25 8 -32
18 -12 16 -13 15 -14 -6z"/>
<path d="M9210 4365 c25 -27 40 -32 40 -14 0 15 -30 38 -49 39 -10 0 -7 -8 9
-25z"/>
<path d="M9142 4325 c24 -36 38 -45 38 -22 -1 16 -35 57 -49 57 -6 0 -1 -16
11 -35z"/>
<path d="M6014 4324 c-4 -14 -2 -30 5 -37 8 -8 11 -5 11 11 0 12 5 22 10 22 6
0 10 -8 10 -17 0 -10 5 -25 10 -33 8 -13 11 -13 24 0 9 8 18 30 22 48 l7 32
-47 0 c-41 0 -46 -3 -52 -26z"/>
<path d="M7910 4346 c0 -4 23 -30 50 -57 28 -27 50 -45 50 -41 0 4 -22 30 -50
57 -27 27 -50 46 -50 41z"/>
<path d="M6265 4310 c-4 -17 -5 -34 -2 -36 2 -3 7 10 11 27 8 42 0 50 -9 9z"/>
<path d="M9045 4290 c3 -5 8 -10 11 -10 2 0 4 5 4 10 0 6 -5 10 -11 10 -5 0
-7 -4 -4 -10z"/>
<path d="M8915 4268 c4 -13 14 -34 24 -48 9 -14 18 -30 21 -37 3 -8 10 -9 19
-4 11 7 6 19 -20 60 -35 54 -55 67 -44 29z"/>
<path d="M9120 4280 c0 -5 5 -10 10 -10 6 0 10 5 10 10 0 6 -4 10 -10 10 -5 0
-10 -4 -10 -10z"/>
<path d="M5710 4145 c-18 -75 -30 -138 -28 -141 3 -2 20 57 38 131 18 75 30
138 28 141 -3 2 -20 -57 -38 -131z"/>
<path d="M9010 4249 c14 -26 38 -35 53 -20 8 8 7 11 -6 11 -10 0 -20 7 -23 15
-4 8 -13 15 -20 15 -12 0 -12 -4 -4 -21z"/>
<path d="M5950 4244 c0 -8 5 -12 10 -9 6 4 8 11 5 16 -9 14 -15 11 -15 -7z"/>
<path d="M5990 4231 c0 -12 4 -19 10 -16 8 5 66 -7 106 -22 8 -3 14 -1 14 4 0
14 -51 40 -92 48 -34 7 -38 5 -38 -14z"/>
<path d="M8110 4147 c52 -54 104 -103 115 -109 20 -9 -44 54 -155 156 -30 28
-12 7 40 -47z"/>
<path d="M8830 4230 c0 -18 55 -100 67 -100 15 0 17 16 3 25 -5 3 -10 17 -10
31 0 14 -6 24 -14 24 -8 0 -16 7 -20 15 -6 17 -26 21 -26 5z"/>
<path d="M6241 4205 c-1 -11 -4 -31 -6 -45 l-6 -25 11 25 c6 13 9 33 7 45 -4
19 -4 19 -6 0z"/>
<path d="M7571 4194 c0 -11 3 -14 6 -6 3 7 2 16 -1 19 -3 4 -6 -2 -5 -13z"/>
<path d="M7795 4169 c9 -55 14 -63 29 -50 9 8 24 1 54 -25 61 -52 90 -24 32
31 -16 16 -30 39 -30 52 0 13 -6 23 -14 23 -7 0 -28 3 -46 6 l-32 7 7 -44z"/>
<path d="M5991 4168 c-22 -8 -31 -58 -11 -58 6 0 10 6 8 14 -2 8 2 15 7 15 6
1 11 -8 13 -20 4 -23 29 -37 42 -23 4 5 11 23 14 40 7 29 5 32 -22 36 -17 2
-39 1 -51 -4z"/>
<path d="M7590 4174 c0 -4 44 -54 97 -113 110 -119 260 -272 223 -226 -14 17
-34 39 -45 51 -17 17 -89 95 -252 271 -13 13 -23 21 -23 17z"/>
<path d="M8740 4124 c0 -15 36 -64 47 -64 19 0 16 11 -12 43 -23 26 -35 33
-35 21z"/>
<path d="M6216 4095 c-3 -9 -6 -22 -5 -28 0 -7 5 -1 10 12 5 13 8 26 5 28 -2
2 -6 -3 -10 -12z"/>
<path d="M5953 4058 c-6 -7 -13 -21 -16 -30 -4 -11 -15 -17 -28 -15 -43 4 -30
-21 13 -27 24 -4 56 -13 71 -21 15 -7 27 -10 27 -5 0 4 3 15 6 23 4 10 -2 15
-21 15 -31 0 -50 15 -40 32 6 10 21 8 63 -7 7 -3 12 3 12 15 0 14 -9 21 -31
26 -42 8 -45 8 -56 -6z"/>
<path d="M8627 4064 c-3 -3 2 -21 11 -40 17 -33 35 -43 47 -24 3 6 2 10 -3 10
-5 0 -15 14 -22 30 -12 29 -21 36 -33 24z"/>
<path d="M8720 4056 c0 -2 7 -9 15 -16 12 -10 15 -10 15 4 0 9 -7 16 -15 16
-8 0 -15 -2 -15 -4z"/>
<path d="M8561 4021 c-25 -19 -24 -21 15 -80 2 -1 7 0 13 4 7 4 5 15 -6 32
-13 20 -14 29 -5 44 15 23 13 23 -17 0z"/>
<path d="M5671 3974 c0 -11 3 -14 6 -6 3 7 2 16 -1 19 -3 4 -6 -2 -5 -13z"/>
<path d="M8395 3970 c3 -5 8 -10 11 -10 2 0 4 5 4 10 0 6 -5 10 -11 10 -5 0
-7 -4 -4 -10z"/>
<path d="M8485 3970 c11 -17 -5 -32 -21 -19 -11 9 -14 7 -14 -13 0 -13 5 -29
12 -36 16 -16 55 -15 61 2 4 9 0 12 -13 9 -28 -7 -36 17 -11 36 22 17 19 31
-6 31 -8 0 -11 -4 -8 -10z"/>
<path d="M8343 3952 c-8 -5 -3 -22 18 -55 16 -26 29 -51 29 -57 0 -12 10 -13
28 -1 10 6 4 21 -24 62 -20 30 -37 55 -38 56 -1 1 -7 -1 -13 -5z"/>
<path d="M5661 3934 c0 -11 3 -14 6 -6 3 7 2 16 -1 19 -3 4 -6 -2 -5 -13z"/>
<path d="M8026 3943 c-2 -2 2 -25 8 -50 10 -40 16 -46 38 -47 15 -1 39 -14 54
-29 30 -31 42 -33 50 -12 3 8 -8 28 -25 47 -17 18 -31 42 -31 53 0 16 -10 23
-45 31 -25 6 -47 9 -49 7z"/>
<path d="M5963 3932 c-43 -3 -64 -27 -47 -54 6 -9 10 -5 15 12 6 26 8 24 24
-25 7 -24 35 -17 46 12 17 46 9 58 -38 55z"/>
<path d="M5646 3879 c-8 -42 0 -50 9 -9 4 17 5 34 2 36 -2 3 -7 -10 -11 -27z"/>
<path d="M6166 3895 c-3 -9 -6 -26 -5 -38 1 -16 4 -12 10 12 10 34 6 55 -5 26z"/>
<path d="M5840 3819 c0 -7 14 -28 32 -46 l31 -32 -27 -11 c-15 -5 -31 -10 -36
-10 -5 0 -14 -9 -20 -20 -9 -17 -8 -20 7 -20 28 0 97 -27 101 -39 5 -15 22 -3
22 15 0 8 -6 14 -12 12 -19 -3 -58 12 -58 23 0 5 16 9 35 9 40 0 46 17 15 45
-11 10 -20 22 -20 27 0 11 38 10 45 -2 11 -18 25 -10 25 14 0 21 -6 24 -47 29
-27 3 -58 9 -70 12 -16 5 -23 3 -23 -6z"/>
<path d="M6141 3779 c-15 -68 -7 -75 9 -9 7 28 10 53 7 56 -3 3 -10 -18 -16
-47z"/>
<path d="M5625 3790 c-4 -17 -5 -34 -2 -36 2 -3 7 10 11 27 8 42 0 50 -9 9z"/>
<path d="M5601 3689 c-6 -28 -10 -54 -7 -56 2 -2 9 19 15 48 6 28 10 54 7 56
-2 2 -9 -19 -15 -48z"/>
<path d="M6111 3654 c-7 -30 -11 -57 -8 -60 2 -2 9 21 16 52 7 30 11 57 8 60
-2 2 -9 -21 -16 -52z"/>
<path d="M5576 3585 c-3 -9 -6 -22 -5 -28 0 -7 5 -1 10 12 5 13 8 26 5 28 -2
2 -6 -3 -10 -12z"/>
<path d="M6091 3564 c0 -11 3 -14 6 -6 3 7 2 16 -1 19 -3 4 -6 -2 -5 -13z"/>
<path d="M5844 3562 c-38 -26 -7 -90 39 -78 27 6 44 37 31 58 -5 7 -10 4 -16
-11 -10 -28 -28 -18 -28 15 0 25 -7 29 -26 16z"/>
<path d="M8170 3515 c-20 -33 -21 -38 -7 -53 9 -9 17 -37 19 -62 2 -32 7 -45
18 -45 11 0 16 15 20 55 3 34 10 55 18 56 6 1 14 2 17 3 8 2 -46 81 -56 81 -4
0 -17 -16 -29 -35z"/>
<path d="M5561 3524 c0 -11 3 -14 6 -6 3 7 2 16 -1 19 -3 4 -6 -2 -5 -13z"/>
<path d="M6075 3500 c-4 -17 -5 -34 -2 -36 2 -3 7 10 11 27 8 42 0 50 -9 9z"/>
<path d="M5552 3480 c0 -14 2 -19 5 -12 2 6 2 18 0 25 -3 6 -5 1 -5 -13z"/>
<path d="M5810 3461 c0 -5 7 -12 16 -15 21 -8 12 -31 -12 -31 -12 0 -20 -8
-22 -21 -3 -20 -1 -21 42 -11 26 6 46 15 46 21 0 6 -16 24 -35 39 -19 15 -35
24 -35 18z"/>
<path d="M5541 3434 c0 -11 3 -14 6 -6 3 7 2 16 -1 19 -3 4 -6 -2 -5 -13z"/>
<path d="M6055 3429 c-3 -13 -25 -109 -50 -212 -48 -199 -50 -212 -35 -185 12
20 101 410 95 416 -2 2 -7 -6 -10 -19z"/>
<path d="M5531 3394 c0 -11 3 -14 6 -6 3 7 2 16 -1 19 -3 4 -6 -2 -5 -13z"/>
<path d="M5501 3273 c-13 -54 -29 -118 -36 -143 -21 -71 -26 -100 -17 -100 9
0 87 328 80 335 -3 3 -15 -39 -27 -92z"/>
<path d="M840 3287 c0 -43 -5 -78 -12 -85 -9 -9 -6 -12 15 -12 l27 0 0 85 c0
69 -3 85 -15 85 -12 0 -15 -15 -15 -73z"/>
<path d="M1008 3353 c-1 -4 -3 -42 -3 -83 0 -65 2 -75 19 -78 15 -3 18 0 13
18 -12 47 31 96 47 54 10 -25 7 -32 -16 -54 l-23 -22 25 4 c32 4 59 51 44 75
-6 9 -25 21 -42 25 -23 6 -31 15 -34 35 -3 25 -22 43 -30 26z"/>
<path d="M280 3330 c-50 -50 0 -159 72 -160 40 0 57 9 73 41 16 29 12 73 -8
100 -31 42 -104 52 -137 19z"/>
<path d="M684 3293 c-13 -32 -29 -66 -34 -75 -12 -22 -13 -28 -1 -28 6 0 16
12 23 28 9 19 21 27 38 27 20 0 26 -6 28 -27 2 -19 9 -28 21 -28 27 0 30 9 15
38 -8 15 -14 32 -14 39 0 19 -33 83 -42 83 -5 0 -20 -26 -34 -57z m31 -12 c-3
-6 -11 -11 -17 -11 -6 0 -6 6 2 15 14 17 26 13 15 -4z"/>
<path d="M5777 3334 c-11 -11 -8 -54 3 -54 6 0 10 7 10 15 0 8 5 15 10 15 6 0
10 -9 10 -20 0 -23 26 -38 40 -24 5 5 10 22 12 38 3 27 0 29 -38 33 -22 2 -43
1 -47 -3z"/>
<path d="M926 3289 c-2 -8 -7 -33 -9 -56 -5 -39 -3 -43 17 -43 20 0 22 5 20
46 -2 47 -19 80 -28 53z"/>
<path d="M1165 3280 c-3 -5 -2 -10 4 -10 5 0 13 5 16 10 3 6 2 10 -4 10 -5 0
-13 -4 -16 -10z"/>
<path d="M1201 3268 c-5 -14 -19 -28 -30 -31 -20 -5 -29 -31 -13 -40 4 -3 25
-7 47 -8 l40 -4 -3 40 c-2 22 -10 46 -17 54 -12 12 -16 11 -24 -11z"/>
<path d="M1350 3260 c-26 -37 -40 -38 -40 -4 0 15 -5 24 -12 22 -16 -6 -20
-140 -5 -150 19 -12 72 -9 85 4 20 20 14 48 -13 58 l-25 9 25 37 c14 20 25 41
25 45 0 18 -19 8 -40 -21z m8 -107 c-2 -11 -14 -19 -31 -21 -29 -4 -30 -2 -21
22 9 23 56 21 52 -1z"/>
<path d="M5710 3264 c0 -14 4 -22 10 -19 5 3 20 1 32 -6 20 -10 19 -7 -6 20
-17 17 -31 31 -33 31 -2 0 -3 -12 -3 -26z"/>
<path d="M7090 3183 c0 -40 0 -76 -1 -80 0 -5 7 -9 15 -11 12 -3 16 6 16 37 0
30 4 41 15 41 11 0 15 -11 15 -40 0 -29 4 -40 15 -40 10 0 15 10 15 31 0 41
-16 69 -40 69 -11 0 -20 6 -20 13 0 7 -7 22 -15 33 -13 17 -14 12 -15 -53z"/>
<path d="M6620 3170 c0 -60 2 -70 18 -70 17 0 17 0 13 113 -1 17 -7 27 -16 27
-12 0 -15 -14 -15 -70z"/>
<path d="M6687 3220 c3 -11 0 -26 -6 -34 -8 -10 -9 -16 -1 -21 5 -3 10 -19 10
-35 0 -22 4 -28 15 -24 20 8 29 42 15 59 -7 8 -9 22 -6 31 6 16 -9 44 -24 44
-5 0 -6 -9 -3 -20z"/>
<path d="M5780 3215 c0 -20 -37 -38 -65 -31 -18 5 -24 1 -28 -16 -4 -12 -5
-23 -4 -24 7 -8 147 22 147 31 0 6 -11 21 -25 33 -19 16 -25 18 -25 7z"/>
<path d="M7460 3160 c0 -69 0 -70 27 -70 21 0 24 3 15 12 -15 15 -16 45 -2 53
19 12 42 -17 35 -42 -5 -22 -4 -23 16 -13 16 9 20 18 15 38 -4 15 -8 38 -10
52 -5 39 -5 40 -20 40 -9 0 -12 -8 -8 -26 4 -21 1 -25 -14 -22 -11 2 -20 13
-22 26 -2 12 -10 22 -18 22 -11 0 -14 -16 -14 -70z"/>
<path d="M7600 3223 c0 -18 50 -128 59 -131 17 -6 24 38 9 56 -8 9 -20 32 -28
50 -11 28 -40 46 -40 25z"/>
<path d="M6815 3145 c0 -35 3 -45 15 -43 19 4 25 54 9 74 -19 23 -24 17 -24
-31z"/>
<path d="M6887 3183 c-14 -13 -7 -81 8 -86 16 -7 29 8 20 23 -10 16 5 50 21
50 8 0 14 5 14 10 0 11 -53 14 -63 3z"/>
<path d="M7020 3159 c0 -38 24 -35 28 4 2 19 -1 27 -12 27 -11 0 -16 -10 -16
-31z"/>
<path d="M7249 3185 c-1 -6 0 -26 1 -45 1 -33 1 -34 -14 -15 -14 19 -15 19
-22 2 -9 -24 0 -31 42 -34 l35 -2 -7 37 c-6 35 -33 78 -35 57z"/>
<path d="M6761 3162 c-14 -26 0 -62 24 -62 18 0 18 4 1 50 -12 34 -13 34 -25
12z"/>
<path d="M6975 3168 c-4 -10 -5 -24 -2 -32 3 -8 2 -28 -3 -45 -11 -38 8 -68
36 -57 18 7 18 8 2 17 -10 6 -18 14 -18 19 0 16 40 11 46 -5 8 -19 24 -9 24
14 0 10 -11 23 -24 30 -13 7 -30 27 -39 44 -12 27 -16 29 -22 15z"/>
<path d="M7320 3135 c0 -33 4 -45 15 -45 11 0 15 11 15 39 0 29 5 41 18 44 9
3 2 5 -15 6 -33 1 -33 0 -33 -44z"/>
<path d="M8170 3125 c-17 -28 -19 -39 -10 -50 6 -7 15 -35 18 -61 9 -64 32
-71 32 -10 0 31 6 52 18 64 18 16 18 18 -1 55 -10 20 -23 37 -27 37 -5 0 -18
-16 -30 -35z"/>
<path d="M5630 2994 c-128 -24 -246 -183 -226 -305 15 -95 82 -191 159 -231
117 -59 270 -16 346 98 39 59 39 72 3 66 -45 -6 -70 29 -62 88 6 48 68 66 94
28 l16 -22 0 21 c0 77 -78 191 -159 232 -40 21 -126 33 -171 25z m-110 -211
c1 -21 7 -49 14 -62 l14 -24 11 22 c7 12 13 38 15 58 4 38 15 49 41 39 12 -4
9 -17 -14 -68 -15 -35 -33 -75 -39 -90 -18 -44 -37 -33 -62 35 -12 34 -31 77
-42 95 l-20 32 41 0 c41 0 41 0 41 -37z m167 -35 c6 -7 13 -36 17 -65 l6 -51
-45 0 c-35 1 -46 5 -51 20 -6 21 11 48 32 48 8 0 14 7 14 16 0 10 -6 14 -15
10 -15 -5 -21 14 -8 27 11 11 40 8 50 -5z m83 -17 c7 -29 24 -28 30 1 6 22 40
39 40 20 0 -24 -52 -123 -62 -120 -19 7 -59 116 -44 122 19 8 30 1 36 -23z"/>
<path d="M5651 2674 c0 -11 3 -14 6 -6 3 7 2 16 -1 19 -3 4 -6 -2 -5 -13z"/>
<path d="M6810 2973 c25 -2 49 -8 54 -14 6 -5 9 -92 7 -206 -1 -120 2 -225 9
-265 l12 -68 137 0 c75 0 289 -3 476 -6 189 -3 335 -2 328 3 -8 6 -13 66 -14
203 -4 236 -9 331 -17 326 -4 -2 -38 2 -77 9 -47 9 -215 14 -515 17 -245 3
-425 3 -400 1z"/>
<path d="M1006 2828 c-17 -19 -28 -20 -185 -17 l-166 4 -3 -41 -3 -41 77 -6
c42 -4 124 -7 181 -7 102 0 104 0 113 -26 8 -21 15 -25 33 -20 12 4 54 15 92
26 39 11 94 26 124 34 54 15 68 22 60 31 -10 9 -264 85 -284 84 -11 0 -28 -10
-39 -21z"/>
<path d="M2262 2820 c-11 -19 -23 -20 -187 -20 l-175 0 0 -45 0 -45 176 -2
c185 -3 180 -2 200 -46 2 -4 307 78 313 84 2 2 2 6 0 9 -7 7 -281 85 -299 85
-8 0 -21 -9 -28 -20z"/>
<path d="M3515 2818 c-10 -22 -14 -23 -188 -26 l-178 -2 3 -43 3 -42 177 -3
178 -2 6 -25 c3 -14 8 -25 10 -25 8 0 280 78 303 87 20 8 14 12 -55 32 -44 12
-115 34 -158 47 -44 13 -82 24 -85 24 -4 0 -11 -10 -16 -22z"/>
<path d="M4765 2810 c-3 -11 -14 -20 -23 -20 -9 -1 -91 -2 -182 -3 l-165 -2
-3 -41 -3 -41 47 -7 c26 -3 107 -6 181 -6 132 0 134 0 143 -24 8 -23 12 -24
42 -15 18 5 85 24 148 40 129 35 154 45 130 53 -57 19 -288 86 -297 86 -7 0
-15 -9 -18 -20z"/>
<path d="M5945 2690 c-4 -6 -13 -9 -19 -7 -7 3 -18 2 -25 -3 -9 -5 -2 -9 19
-12 21 -3 34 0 37 9 7 18 -3 28 -12 13z"/>
<path d="M8570 2635 c0 -42 4 -55 15 -55 8 0 12 6 9 14 -9 25 19 31 34 8 8
-12 20 -22 28 -22 10 0 9 7 -4 30 -10 17 -23 28 -30 25 -9 -3 -18 7 -25 25
-17 45 -27 36 -27 -25z"/>
<path d="M8630 2671 c0 -12 5 -21 10 -21 6 0 10 6 10 14 0 8 -4 18 -10 21 -5
3 -10 -3 -10 -14z"/>
<path d="M8823 2633 c3 -63 20 -76 20 -16 -1 63 -3 73 -13 73 -6 0 -9 -24 -7
-57z"/>
<path d="M9092 2628 c2 -32 8 -53 17 -56 9 -3 11 1 7 16 -10 31 8 34 32 7 30
-34 45 -31 24 5 -9 16 -25 30 -35 30 -10 0 -22 11 -27 25 -15 39 -21 30 -18
-27z"/>
<path d="M9150 2661 c0 -12 5 -21 10 -21 6 0 10 6 10 14 0 8 -4 18 -10 21 -5
3 -10 -3 -10 -14z"/>
<path d="M8877 2618 c8 -43 23 -60 23 -26 0 32 -9 58 -21 58 -5 0 -6 -15 -2
-32z"/>
<path d="M9490 2634 c0 -8 5 -12 10 -9 6 3 10 10 10 16 0 5 -4 9 -10 9 -5 0
-10 -7 -10 -16z"/>
<path d="M8760 2628 c0 -7 4 -19 9 -27 11 -17 23 1 15 23 -7 19 -24 21 -24 4z"/>
<path d="M8970 2611 c0 -27 15 -49 26 -39 7 8 -8 68 -17 68 -5 0 -9 -13 -9
-29z"/>
<path d="M9283 2611 c1 -16 5 -27 10 -24 10 6 9 41 -3 48 -5 3 -8 -7 -7 -24z"/>
<path d="M8707 2617 c-6 -17 17 -55 25 -41 3 5 -1 19 -7 32 -10 18 -14 20 -18
9z"/>
<path d="M9380 2606 c0 -23 -4 -27 -20 -23 -11 3 -20 1 -20 -4 0 -5 14 -9 30
-9 28 0 30 2 24 28 -9 38 -14 40 -14 8z"/>
<path d="M9226 2602 c-3 -5 1 -15 9 -22 16 -14 20 -3 6 19 -5 8 -11 9 -15 3z"/>
<path d="M9440 2585 c0 -8 4 -15 10 -15 5 0 7 7 4 15 -4 8 -8 15 -10 15 -2 0
-4 -7 -4 -15z"/>
<path d="M3681 2424 c0 -11 3 -14 6 -6 3 7 2 16 -1 19 -3 4 -6 -2 -5 -13z"/>
<path d="M3173 2390 c0 -25 2 -35 4 -22 2 12 2 32 0 45 -2 12 -4 2 -4 -23z"/>
<path d="M5428 2343 c-1 -49 -2 -101 -3 -118 -1 -16 -4 -392 -7 -835 -4 -471
-3 -675 2 -492 12 484 23 1532 16 1532 -3 0 -7 -39 -8 -87z"/>
<path d="M5926 1735 c-3 -379 -7 -790 -9 -912 -1 -123 1 -223 5 -223 5 0 8
192 9 428 0 235 4 636 8 892 4 256 4 474 0 485 -3 11 -9 -290 -13 -670z"/>
<path d="M7964 2245 c0 -82 2 -115 3 -72 2 43 2 110 0 150 -1 40 -3 5 -3 -78z"/>
<path d="M1376 2334 c-5 -13 -2 -15 13 -11 11 3 25 -1 32 -9 9 -11 13 -11 26
1 27 27 60 14 47 -19 -3 -9 -17 -16 -31 -16 -22 0 -24 -2 -13 -15 7 -9 23 -15
34 -13 16 2 22 13 27 43 4 22 5 43 2 48 -2 4 -33 7 -68 7 -49 0 -64 -4 -69
-16z"/>
<path d="M8401 2244 c0 -11 3 -14 6 -6 3 7 2 16 -1 19 -3 4 -6 -2 -5 -13z"/>
<path d="M1474 2199 c-18 -18 -24 -19 -48 -7 -44 19 -57 -8 -47 -92 1 -3 29
-4 63 -4 49 1 64 5 66 18 2 11 -4 16 -17 16 -26 0 -27 12 -1 35 19 18 28 55
12 55 -4 0 -17 -9 -28 -21z m-36 -41 c-2 -15 -11 -24 -25 -26 -25 -4 -31 16
-11 36 20 20 40 14 36 -10z"/>
<path d="M5590 2199 c0 -16 4 -19 20 -14 16 5 23 0 31 -24 11 -31 40 -46 76
-39 14 2 19 14 21 51 l3 47 -75 0 c-70 0 -76 -2 -76 -21z m126 -20 c8 -13 -5
-26 -31 -31 -14 -2 -21 3 -23 20 -3 18 1 22 22 22 14 0 28 -5 32 -11z"/>
<path d="M3674 2030 c0 -102 2 -143 3 -92 2 50 2 134 0 185 -1 50 -3 9 -3 -93z"/>
<path d="M3384 2119 c-17 -19 -19 -19 -25 -2 -7 16 -8 16 -8 1 -1 -25 10 -48
23 -48 19 0 59 47 51 59 -9 16 -20 14 -41 -10z"/>
<path d="M5720 2097 c0 -8 -9 -22 -20 -32 -17 -15 -24 -16 -45 -7 -44 20 -65
-2 -65 -73 l0 -30 75 0 c71 0 75 1 75 22 0 25 -16 39 -23 21 -3 -10 -7 -10
-17 -1 -10 9 -7 18 14 43 27 33 33 55 16 65 -5 3 -10 0 -10 -8z m-62 -80 c4
-20 -25 -34 -40 -19 -15 15 -1 44 19 40 10 -2 19 -11 21 -21z"/>
<path d="M3426 2091 c-4 -7 -5 -15 -2 -18 9 -9 19 4 14 18 -4 11 -6 11 -12 0z"/>
<path d="M8140 2064 c0 -8 6 -11 14 -8 8 3 22 -9 34 -30 22 -37 29 -40 56 -30
11 4 16 19 16 44 0 33 -3 37 -20 33 -17 -5 -18 -7 -4 -21 14 -13 14 -16 0 -30
-12 -13 -18 -13 -31 -2 -9 7 -13 21 -10 31 4 11 3 19 -2 20 -4 0 -18 2 -30 3
-14 2 -23 -3 -23 -10z"/>
<path d="M3386 2029 c-17 -13 -26 -16 -26 -8 0 9 -3 10 -11 2 -8 -8 -8 -17 0
-32 13 -23 40 -27 60 -8 10 10 12 6 9 -18 -2 -23 -9 -31 -28 -33 -33 -5 -50
-20 -50 -43 0 -24 9 -24 26 -1 11 16 13 15 23 -10 12 -31 35 -37 45 -12 11 29
6 131 -8 158 l-13 26 -27 -21z"/>
<path d="M3163 1960 c0 -47 2 -66 4 -42 2 23 2 61 0 85 -2 23 -4 4 -4 -43z"/>
<path d="M8402 2000 c0 -19 2 -27 5 -17 2 9 2 25 0 35 -3 9 -5 1 -5 -18z"/>
<path d="M1427 1983 c-4 -3 -7 -15 -7 -27 0 -15 3 -17 12 -8 18 18 27 15 38
-14 14 -35 34 -25 38 19 3 37 3 37 -36 37 -21 0 -42 -3 -45 -7z"/>
<path d="M8229 1948 c-13 -18 -18 -19 -38 -9 -32 17 -41 3 -12 -18 13 -10 21
-23 17 -30 -11 -17 -34 -13 -45 7 -9 15 -10 13 -11 -10 0 -25 2 -26 60 -30 50
-2 60 0 60 13 0 9 -10 20 -22 23 l-23 6 23 19 c12 11 22 26 22 35 0 22 -12 19
-31 -6z"/>
<path d="M1489 1885 c-3 -2 -31 -5 -64 -7 -49 -3 -61 -7 -63 -22 -3 -14 0 -17
13 -12 10 3 23 2 30 -4 10 -8 19 -8 33 1 22 14 56 5 50 -13 -3 -7 -15 -15 -27
-18 -31 -7 -31 -24 1 -28 30 -4 43 15 46 65 2 28 -9 49 -19 38z"/>
<path d="M5680 1845 c-10 -12 -15 -13 -21 -3 -12 19 -22 2 -15 -27 7 -28 27
-32 50 -10 8 8 17 15 20 15 3 0 3 -7 0 -15 -4 -8 -1 -15 6 -15 7 0 10 13 8 32
-3 37 -27 48 -48 23z"/>
<path d="M3306 1814 c-10 -9 -16 -33 -16 -57 l0 -42 70 0 c65 0 70 2 70 22 0
17 -4 20 -21 16 -12 -4 -25 0 -30 8 -6 11 -11 11 -21 1 -20 -20 -48 -15 -48 9
0 18 5 21 30 17 31 -5 34 -1 24 26 -8 20 -38 21 -58 0z"/>
<path d="M3667 1823 c-6 -9 -11 -375 -6 -403 2 -8 5 80 9 195 3 116 4 211 4
213 -1 2 -4 -1 -7 -5z"/>
<path d="M8401 1774 c0 -11 3 -14 6 -6 3 7 2 16 -1 19 -3 4 -6 -2 -5 -13z"/>
<path d="M5679 1749 c-17 -17 -23 -19 -30 -8 -7 11 -9 11 -9 -3 0 -30 12 -48
31 -48 11 0 22 7 25 15 4 8 10 15 15 15 4 0 6 -6 3 -14 -3 -8 -1 -17 5 -21 12
-7 15 42 5 69 -8 21 -20 20 -45 -5z"/>
<path d="M8190 1752 c0 -4 18 -7 40 -7 22 0 40 3 40 7 0 5 -18 8 -40 8 -22 0
-40 -3 -40 -8z"/>
<path d="M1465 1742 c-42 -5 -55 -19 -55 -58 0 -29 4 -34 23 -34 12 0 32 -3
45 -6 18 -5 22 -2 22 15 0 18 -5 21 -32 19 -44 -4 -46 26 -3 30 17 2 34 8 40
13 14 14 -6 25 -40 21z"/>
<path d="M3152 1595 c-1 -77 -4 -185 -7 -240 -4 -77 -3 -92 5 -68 6 19 9 118
7 240 -2 164 -3 178 -5 68z"/>
<path d="M8226 1700 c-16 -3 -31 -11 -34 -19 -3 -8 0 -11 6 -7 5 3 17 -6 27
-20 20 -32 38 -20 33 22 -3 26 -6 29 -32 24z"/>
<path d="M5705 1660 c-3 -5 -17 -10 -30 -10 -23 0 -35 -17 -35 -48 0 -13 3
-12 14 4 8 10 16 17 18 14 2 -3 8 -14 14 -25 20 -36 39 -24 42 28 3 44 -8 61
-23 37z"/>
<path d="M3339 1618 c0 -2 -3 -28 -5 -58 -5 -52 -5 -54 13 -38 10 8 33 23 51
32 41 21 32 40 -15 33 -27 -5 -34 -3 -29 8 3 8 1 17 -4 20 -6 4 -10 5 -11 3z"/>
<path d="M1450 1601 c-26 -4 -36 -12 -38 -28 -2 -13 1 -23 7 -23 6 0 11 5 11
10 0 20 21 9 30 -16 6 -14 16 -24 23 -22 13 5 23 89 10 87 -4 -1 -24 -4 -43
-8z"/>
<path d="M8184 1597 c-10 -28 0 -39 39 -42 39 -2 48 17 11 23 -10 2 -25 11
-31 19 -11 15 -13 15 -19 0z"/>
<path d="M5602 1538 c-7 -7 -12 -32 -12 -57 l0 -46 55 3 c34 3 61 -1 70 -8 13
-11 15 -7 15 25 0 32 -2 36 -15 25 -21 -17 -45 -5 -45 23 0 27 -17 47 -40 47
-9 0 -21 -5 -28 -12z m53 -43 c0 -22 -31 -33 -48 -16 -7 7 -6 15 3 26 17 21
45 15 45 -10z"/>
<path d="M8226 1511 c-16 -3 -31 -12 -32 -19 -1 -7 0 -8 3 -2 7 14 36 13 51
-2 9 -9 12 -7 12 10 0 12 -1 21 -2 21 -2 -1 -16 -4 -32 -8z"/>
<path d="M3294 1479 c-8 -9 -14 -36 -14 -64 0 -41 2 -46 15 -35 11 9 29 10 70
2 34 -5 58 -5 61 0 9 14 -6 95 -19 106 -19 15 -96 9 -113 -9z m116 -34 c0 -20
-5 -25 -25 -25 -27 0 -33 18 -13 38 20 20 38 14 38 -13z m-70 0 c0 -16 -27
-32 -37 -22 -3 4 -3 13 0 22 8 20 37 20 37 0z"/>
<path d="M1360 1480 c0 -20 5 -25 19 -22 7 2 18 -2 22 -10 7 -10 11 -10 21 0
6 6 22 12 35 12 34 0 29 -30 -7 -43 -35 -13 -38 -23 -11 -30 34 -9 61 20 61
64 l0 39 -70 0 c-40 0 -70 -4 -70 -10z"/>
<path d="M8186 1453 c-3 -7 -2 -14 2 -16 11 -7 72 4 72 13 0 14 -69 17 -74 3z"/>
<path d="M8180 1400 c0 -14 7 -20 24 -20 13 0 31 -3 40 -6 11 -4 16 -1 16 10
0 10 -9 16 -24 16 -14 0 -28 5 -31 10 -10 17 -25 11 -25 -10z"/>
<path d="M5637 1343 c-4 -3 -7 -28 -7 -54 l0 -47 51 26 c46 24 49 27 32 39 -9
8 -24 11 -33 7 -29 -11 -35 -9 -32 14 3 23 0 27 -11 15z"/>
<path d="M8230 1333 c-14 -3 -29 -9 -35 -15 -7 -8 -6 -9 3 -4 7 5 16 -2 22
-18 15 -39 40 -33 40 9 0 19 -1 34 -2 34 -2 -1 -14 -4 -28 -6z"/>
<path d="M1422 1310 c-22 -21 -27 -32 -17 -42 9 -9 80 31 80 45 0 21 -39 19
-63 -3z"/>
<path d="M3652 1205 c-12 -639 -12 -606 -1 -430 5 88 8 250 6 360 -2 146 -3
165 -5 70z"/>
<path d="M5756 1277 c3 -10 9 -15 12 -12 3 3 0 11 -7 18 -10 9 -11 8 -5 -6z"/>
<path d="M3343 1273 c-8 -3 -13 -23 -13 -48 0 -43 0 -44 38 -47 48 -4 52 -32
5 -36 -38 -4 -59 -33 -44 -60 9 -15 11 -14 19 8 l9 24 13 -24 c15 -29 30 -41
42 -34 4 3 8 54 8 115 l0 109 -32 -1 c-18 0 -39 -3 -45 -6z m65 -40 c-4 -20
-35 -30 -50 -15 -15 15 0 32 28 32 19 0 25 -5 22 -17z"/>
<path d="M3144 1035 c0 -121 2 -169 3 -107 2 62 2 161 0 220 -1 59 -3 8 -3
-113z"/>
<path d="M1410 1225 c-18 -22 2 -63 36 -71 30 -8 44 7 44 46 -1 23 -2 24 -14
8 -7 -10 -21 -18 -30 -18 -12 0 -15 6 -10 25 7 28 -7 33 -26 10z"/>
<path d="M5667 1219 c-10 -6 -25 -8 -33 -5 -24 9 -54 -30 -54 -72 l0 -38 59 4
c36 3 61 0 65 -7 15 -24 26 -9 26 33 0 56 -34 102 -63 85z m43 -54 c0 -18 -5
-25 -20 -25 -25 0 -38 29 -19 41 25 15 39 10 39 -16z m-72 -2 c-2 -10 -10 -18
-18 -18 -8 0 -16 8 -18 18 -2 12 3 17 18 17 15 0 20 -5 18 -17z"/>
<path d="M8236 1214 c-5 -13 -14 -15 -38 -10 -29 6 -31 5 -14 -7 28 -20 14
-51 -19 -43 -18 5 -25 2 -25 -9 0 -12 13 -15 60 -15 59 0 83 16 40 27 -19 5
-29 33 -11 33 10 0 24 30 17 37 -2 2 -6 -4 -10 -13z"/>
<path d="M1451 1103 c-24 -16 -38 -20 -45 -13 -15 15 -43 12 -50 -6 -3 -9 -6
-32 -6 -52 l0 -37 70 3 c62 3 70 6 70 23 0 16 -5 19 -20 14 -27 -8 -26 12 1
41 11 12 19 29 17 36 -2 11 -11 9 -37 -9z m-37 -32 c10 -16 -5 -41 -24 -41
-25 0 -35 18 -20 35 14 17 36 20 44 6z"/>
<path d="M3343 1020 c-14 -6 -23 -18 -23 -30 0 -13 -10 -24 -25 -30 -14 -5
-25 -15 -25 -23 0 -10 16 -12 66 -9 64 4 66 4 62 -19 -1 -13 -9 -25 -15 -25
-7 -1 -22 -2 -33 -3 -23 -1 -35 -23 -26 -48 6 -15 8 -15 19 1 12 16 14 16 25
-9 11 -24 9 -29 -23 -62 -19 -20 -35 -40 -35 -45 0 -4 -7 -8 -16 -8 -13 0 -15
7 -10 30 3 19 2 29 -4 25 -13 -8 -13 -41 0 -66 16 -28 42 -23 80 16 18 19 37
32 42 29 12 -7 10 3 -4 26 -11 17 -10 22 1 29 9 6 14 41 17 120 l5 111 -28 -1
c-15 0 -38 -4 -50 -9z m58 -45 c0 -5 -12 -11 -26 -13 -18 -2 -25 1 -25 13 0
12 7 15 25 13 14 -2 26 -7 26 -13z"/>
<path d="M5648 1002 c-48 -2 -68 -7 -68 -16 0 -9 17 -13 60 -12 42 1 61 -2 65
-12 8 -22 -4 -32 -41 -32 l-34 0 0 -51 0 -52 41 6 c22 3 43 7 45 10 3 2 4 40
2 83 l-3 79 -67 -3z m50 -119 c2 -8 -6 -13 -22 -13 -17 0 -26 5 -26 16 0 19
41 16 48 -3z"/>
<path d="M1171 924 c0 -11 3 -14 6 -6 3 7 2 16 -1 19 -3 4 -6 -2 -5 -13z"/>
<path d="M1430 875 c0 -8 5 -15 10 -15 6 0 10 7 10 15 0 8 -4 15 -10 15 -5 0
-10 -7 -10 -15z"/>
<path d="M1394 805 c-4 -15 -2 -37 5 -51 9 -21 16 -24 56 -20 25 2 48 -1 51
-6 8 -12 34 11 34 30 0 12 -3 13 -12 4 -21 -21 -31 -13 -25 23 6 38 -7 47 -28
18 -11 -15 -15 -15 -43 6 l-31 22 -7 -26z m44 -27 c-2 -6 -10 -14 -16 -16 -7
-2 -10 2 -6 12 7 18 28 22 22 4z"/>
<path d="M3131 728 c2 -78 2 -80 9 -33 12 72 11 115 0 115 -6 0 -9 -33 -9 -82z"/>
<path d="M5668 793 c-34 -4 -38 -7 -38 -34 0 -30 20 -42 20 -11 1 15 2 15 15
-3 8 -11 22 -28 31 -37 18 -19 17 -20 -39 -32 -21 -5 -29 -14 -34 -36 -3 -17
-9 -31 -14 -31 -5 -1 -15 -2 -21 -3 -9 -1 -13 -25 -13 -79 0 -71 2 -81 24 -98
28 -23 69 -24 99 -3 18 12 22 25 22 64 0 27 -4 51 -9 54 -5 3 -8 -12 -7 -34 0
-28 -5 -44 -19 -54 -28 -21 -69 -20 -90 4 -14 15 -15 25 -7 49 6 16 8 40 5 52
-6 21 -4 21 61 17 l66 -4 0 113 c0 62 -3 112 -7 111 -5 -1 -25 -3 -45 -5z m35
-157 c7 -19 -1 -26 -30 -26 -22 0 -31 19 -16 33 11 12 41 7 46 -7z"/>
<path d="M3397 706 c-15 -23 -16 -26 -2 -26 17 0 29 22 23 41 -2 6 -12 0 -21
-15z"/>
<path d="M1440 703 c-35 -7 -50 -21 -50 -49 0 -19 5 -24 25 -24 31 0 34 -26 4
-35 -11 -4 -25 -20 -31 -37 -6 -16 -21 -34 -35 -39 -44 -16 -20 -31 55 -34
l72 -2 0 29 c0 25 -2 27 -19 17 -22 -14 -55 -5 -48 14 2 6 18 11 35 11 29 -2
31 0 26 22 -4 13 -2 30 3 37 12 16 10 90 -2 92 -6 1 -21 0 -35 -2z"/>
<path d="M1387 436 c-8 -20 2 -26 33 -20 15 4 31 1 34 -5 10 -16 26 -4 26 20
0 16 -7 19 -44 19 -28 0 -46 -5 -49 -14z"/>
<path d="M1340 430 c0 -5 7 -10 16 -10 8 0 12 5 9 10 -3 6 -10 10 -16 10 -5 0
-9 -4 -9 -10z"/>
<path d="M1456 383 c-4 -5 -33 -8 -64 -8 -43 0 -57 -4 -60 -15 -2 -13 9 -16
57 -15 71 0 93 -15 62 -41 -11 -10 -40 -26 -63 -35 -51 -20 -61 -44 -21 -52
15 -3 45 -17 65 -30 20 -14 39 -23 42 -19 12 11 5 23 -19 32 -30 11 -33 40 -5
47 23 6 27 20 28 91 1 49 -5 62 -22 45z"/>
</g>
</svg>
